<?xml version="1.0" ?><svg enable-background="new 0 0 64 64" id="Layer_1_1_" version="1.1" viewBox="0 0 64 64" xml:space="preserve" xmlns="http://www.w3.org/2000/svg" xmlns:xlink="http://www.w3.org/1999/xlink"><g><g><path d="M35.6,11.8l-1.2-1.6C35.4,9.4,36,8.3,36,7c0-2.2-1.8-4-4-4c-2.2,0-4,1.8-4,4c0,1.3,0.6,2.4,1.6,3.2    l-1.2,1.6C26.9,10.7,26,8.9,26,7c0-3.3,2.7-6,6-6s6,2.7,6,6C38,8.9,37.1,10.7,35.6,11.8z" fill="#333333"/></g><g><rect fill="#333333" height="2" width="14" x="25" y="10"/></g><g><path d="M41.2,63H22.8l-0.2-0.1C15.4,59.9,11,52.6,11,44c0-9.5,6.5-17.5,16-19.8V11h2v14.8L28.2,26    c-9,1.8-15.2,9.2-15.2,18c0,7.7,3.9,14.2,10.2,17h17.6C47.1,58.2,51,51.7,51,44c0-8.8-6.3-16.2-15.2-18L35,25.8V11h2v13.2    c9.5,2.3,16,10.3,16,19.8c0,8.6-4.4,15.9-11.6,18.9L41.2,63z" fill="#333333"/></g><g><path d="M32,60c-8.8,0-16-7.2-16-16c0-2.1,0.6-4,1.1-5.3l0.2-0.7h29.4l0.2,0.7C47.4,40,48,41.9,48,44    C48,52.8,40.8,60,32,60z M18.7,40c-0.4,1.1-0.7,2.5-0.7,4c0,7.7,6.3,14,14,14s14-6.3,14-14c0-1.5-0.4-2.9-0.7-4H18.7z" fill="#333333"/></g><g><path d="M18,44h-2c0-8.8,7.2-16,16-16v2C24.3,30,18,36.3,18,44z" fill="#333333"/></g><g><rect fill="#333333" height="2" width="2" x="42" y="33"/></g><g><rect fill="#333333" height="2" width="2" x="38" y="33"/></g><g><rect fill="#333333" height="2" width="2" x="34" y="33"/></g></g></svg>