<?xml version="1.0" ?><!DOCTYPE svg  PUBLIC '-//W3C//DTD SVG 1.1//EN'  'http://www.w3.org/Graphics/SVG/1.1/DTD/svg11.dtd'><svg enable-background="new 0 0 64 64" version="1.1" viewBox="0 0 64 64" xml:space="preserve" xmlns="http://www.w3.org/2000/svg" xmlns:xlink="http://www.w3.org/1999/xlink"><g id="Layer_1"/><g id="Layer_3"><g><path d="M43,6.3c-4.3,0-7.8,3.5-7.8,7.8H14.2c-0.4,0-0.8,0.3-0.9,0.7c-0.1,0.4,0,0.8,0.3,1.1c0,0,2.8,2.4,4.4,6.6    c0.9,2.5,0.9,5.3-0.1,8.4c-0.3,1-0.5,2-0.5,3c0,5.7,4.7,10.5,10.6,10.9v10.9h-4.3c-0.6,0-1,0.4-1,1s0.4,1,1,1h10.5    c0.6,0,1-0.4,1-1s-0.4-1-1-1H30V44.8c5.9-0.5,10.6-5.2,10.6-10.9c0-1-0.2-2-0.5-3c-1-3.1-1-6-0.1-8.4c0.1-0.3,0.2-0.6,0.3-0.8    c0.8,0.3,1.6,0.4,2.5,0.4c4.3,0,7.9-3.5,7.9-7.9C50.8,9.8,47.3,6.3,43,6.3z M16.5,16h25c-0.8,0.9-1.7,2.2-2.5,3.8c0,0,0,0,0,0    c0,0,0,0,0,0c-0.3,0.6-0.6,1.2-0.8,1.8c-0.2,0.6-0.4,1.2-0.5,1.8H20.3c-0.1-0.6-0.3-1.2-0.5-1.8C18.9,19.2,17.6,17.3,16.5,16z     M29,42.8c-5.3,0-9.6-4-9.6-9c0-0.8,0.1-1.7,0.4-2.4c0.6-2,0.9-4,0.8-5.9h16.9c-0.1,1.9,0.2,3.8,0.8,5.9c0.2,0.8,0.4,1.6,0.4,2.4    C38.6,38.8,34.3,42.8,29,42.8z M43,20c-0.5,0-1.1-0.1-1.6-0.2c1.5-2.5,3.1-3.9,3.1-3.9c0.3-0.3,0.4-0.7,0.3-1.1    c-0.1-0.4-0.5-0.7-0.9-0.7h-6.7c0-3.2,2.6-5.8,5.8-5.8c3.2,0,5.9,2.6,5.9,5.8C48.8,17.3,46.2,20,43,20z"/></g></g></svg>