<svg id="Camada_1" data-name="Camada 1" xmlns="http://www.w3.org/2000/svg" viewBox="0 0 69 28"><defs><style>.cls-1{fill:#c1ae41;}</style></defs><title>logo_tacaPrancheta 1</title><path class="cls-1" d="M28.12-.14h1.06a3.43,3.43,0,0,1,0,6.85H28.12ZM29.18,6a2.75,2.75,0,0,0,0-5.49H28.8V6Z"/><path class="cls-1" d="M37.31-.28a3.57,3.57,0,1,1-3.56,3.57A3.59,3.59,0,0,1,37.31-.28Zm0,.7a2.87,2.87,0,1,0,2.86,2.87A2.87,2.87,0,0,0,37.31.42Z"/><path class="cls-1" d="M.18,28V13.89h2.1a3.87,3.87,0,0,1,3.8,3.87,3.33,3.33,0,0,1-1.91,3.06,3.43,3.43,0,0,1,2.32,3.27A3.93,3.93,0,0,1,2.6,28Zm1.4-12.69V20.2h.66A2.33,2.33,0,0,0,4,19.48,2.43,2.43,0,0,0,4,16a2.25,2.25,0,0,0-1.68-.74Zm0,6.31v5h1a2.42,2.42,0,0,0,1.75-.72,2.4,2.4,0,0,0,.74-1.77,2.34,2.34,0,0,0-.74-1.75A2.36,2.36,0,0,0,2.6,21.6Z"/><path class="cls-1" d="M16.45,13.6A7.34,7.34,0,1,1,9.11,21,7.38,7.38,0,0,1,16.45,13.6Zm0,1.44A5.9,5.9,0,1,0,22.33,21,5.9,5.9,0,0,0,16.45,15Z"/><path class="cls-1" d="M27,27.34a4.57,4.57,0,0,0,1.36-3.23,6.78,6.78,0,0,0-.8-3.06,6.81,6.81,0,0,1-.85-3.29,5.73,5.73,0,0,1,1.59-4.16l1.17.93a4.57,4.57,0,0,0-1.36,3.23,6.78,6.78,0,0,0,.8,3.06,6.81,6.81,0,0,1,.85,3.29,5.73,5.73,0,0,1-1.59,4.16Z"/><path class="cls-1" d="M44.61,26.6a7.34,7.34,0,1,1-4.67-13,7.34,7.34,0,0,1,5.66,12l1.87,1.88-1,1Zm-4.67.23A5.9,5.9,0,1,0,34.06,21,5.88,5.88,0,0,0,39.94,26.83Z"/><path class="cls-1" d="M50.72,13.89h1.4V24.44a2.32,2.32,0,0,0,.68,1.67,2.33,2.33,0,0,0,3.29,0,2.3,2.3,0,0,0,.7-1.67V13.89h1.4V24.44a3.74,3.74,0,0,1-7.47,0Z"/><path class="cls-1" d="M62.71,13.89h6.11v1.4H64.11v4.93h4.71v1.4H64.11v5h4.71V28H62.71Z"/></svg>
