<svg id="Camada_1" data-name="Camada 1" xmlns="http://www.w3.org/2000/svg" viewBox="0 0 87.36 27.47"><defs><style>.cls-1{font-size:10px;letter-spacing:0.02em;}.cls-1,.cls-2,.cls-3{fill:#c17941;}.cls-1,.cls-2{font-family:MostraNuovaAltB-Regular, Mostra Nuova;}.cls-2{font-size:20.57px;letter-spacing:0.02em;}</style></defs><title>logo_tacaPrancheta 1</title><text class="cls-1" transform="matrix(1, 0, 0, 1, 27.86, 7.52)">DO</text><text class="cls-2" transform="translate(-0.99 26.76)">BOSQUE</text><path class="cls-3" d="M86.42,27H81.25a.14.14,0,0,1-.14-.14v0a.26.26,0,0,1,.12-.21.28.28,0,0,1,.13,0c1.88,0,2.21-.83,2.25-2.59,0-.06,0-.1,0-.14h0v-.36A7.56,7.56,0,0,0,83,20.06c-.11-.3-.25-.64-.39-1.06l-.07-.2c-.18-.51-.57-1.7-1.44-4.45l0,0a.17.17,0,0,1,0-.14.17.17,0,0,1,.13-.07h5.29a.16.16,0,0,1,.13.07.14.14,0,0,1,0,.14c-.19.61-1.17,3.7-1.52,4.69-.15.42-.28.76-.4,1.07a7.5,7.5,0,0,0-.66,3.4V24c0,1.76.38,2.54,2.25,2.59a.26.26,0,0,1,.25.25v0A.14.14,0,0,1,86.42,27Zm0-12.51a.17.17,0,0,0-.18-.22H81.42a.18.18,0,0,0-.18.23c.82,2.59,1.21,3.79,1.38,4.29l.07.2c.15.41.28.75.4,1.06a7.69,7.69,0,0,1,.67,3.45V24c0,1.8-.41,2.67-2.4,2.72l0,0a.1.1,0,0,0-.06.09v0h5.17v0a.11.11,0,0,0-.11-.11c-2-.05-2.35-.92-2.39-2.72v-.51A8.5,8.5,0,0,1,84.59,20Z"/><path class="cls-3" d="M81.38,14.55c.09.29,1.1,3.43,1.37,4.25a.2.2,0,0,0,.18.12h0c-.22-.61-1.19-3.66-1.38-4.25a.17.17,0,0,0-.17-.12Z"/><path class="cls-3" d="M83,26.68h3.4a.17.17,0,0,0-.1,0C84.09,26.59,84,25.46,84,23.37c0-.12,0-1.27,0-1.4a5,5,0,0,0-.19,1.43v2.5a.77.77,0,0,0,.32.62s0,.05,0,.05h-.71C83.37,26.57,83,26.62,83,26.68Z"/><path class="cls-3" d="M83.07,19.2c.17.47.31.8.41,1.11a.34.34,0,0,0,.26.22.33.33,0,0,0,.26-.05.4.4,0,0,0,.13-.16c.1-.32.24-.64.41-1.12h0a.17.17,0,0,0-.12.06c-.08.15-.3.48-.58.48s-.5-.34-.59-.48a.14.14,0,0,0-.11-.06Z"/><path class="cls-3" d="M83.9,18.93h-.18a.8.8,0,0,1-.76-.51s-.75-2.29-1.07-3.3a.31.31,0,0,1,0-.28.35.35,0,0,1,.25-.15,5.72,5.72,0,0,1,1.84.17,6.77,6.77,0,0,1,1.69-.08.1.1,0,0,1,.08.05.11.11,0,0,1,0,.08c-.35,1.11-1.14,3.51-1.14,3.51A.81.81,0,0,1,83.9,18.93Zm-.81-.56c.17.44,1.29.41,1.62-.51.26-.75.51-1.6.87-2.72a.19.19,0,0,0-.18-.24,5.85,5.85,0,0,0-1.86.21,4.28,4.28,0,0,1-1.31.25.08.08,0,0,0-.08.11C82.47,16.47,82.83,17.65,83.09,18.37Zm-.76-3.21c.12.06.31.09,1.16-.18l.19-.05a3.92,3.92,0,0,0-1.26-.13C82.09,14.86,82.2,15.1,82.33,15.16Z"/><path class="cls-3" d="M84,3.66Z"/><path class="cls-3" d="M84.85,1.48Z"/><path class="cls-3" d="M84.93,1.65Z"/><polygon class="cls-3" points="84.93 1.65 84.93 1.65 84.93 1.65 84.93 1.65"/><path class="cls-3" d="M85,1.33Z"/><path class="cls-3" d="M85,1.34Z"/><path class="cls-3" d="M85.41,2.08Z"/><polygon class="cls-3" points="83.72 2.06 83.72 2.06 83.72 2.06 83.72 2.06"/><path class="cls-3" d="M83.77,3.26Z"/><path class="cls-3" d="M83.75,3h0Z"/><polygon class="cls-3" points="84.98 3.48 84.98 3.48 84.98 3.47 84.98 3.48"/><path class="cls-3" d="M85.29,3.72Z"/><polygon class="cls-3" points="84.22 0.72 84.22 0.72 84.22 0.72 84.22 0.72 84.22 0.72"/><path class="cls-3" d="M84.13.81Z"/><path class="cls-3" d="M84.14,1h0Z"/><path class="cls-3" d="M84.46,6.11h0Z"/><path class="cls-3" d="M85.37,7.72h0Z"/><path class="cls-3" d="M85.6,7h0Z"/><path class="cls-3" d="M84,13.87Z"/><path class="cls-3" d="M85.11,13.79ZM86.8,4.68c.07,0,0-.06-.09-.06h-.09v0h0a.13.13,0,0,0,0-.06h0a0,0,0,0,0,0,0h0a.24.24,0,0,0,0-.14c-.09,0-.17,0-.23.09a.54.54,0,0,0-.06-.25s0-.06,0-.06a.09.09,0,0,0-.07,0,1.88,1.88,0,0,0-.16.23.24.24,0,0,0,0-.1A.47.47,0,0,0,86,4.2c-.07-.1-.14.16-.12.21a.2.2,0,0,0,.11.23h0a.41.41,0,0,0,.11.07s.07,0,.08.1a0,0,0,0,1,0,0c-.05.3-.15.58-.21.88a.29.29,0,0,0,0-.09.94.94,0,0,1,0-.16h0c0-.1,0-.2-.07-.3l0,0s0-.12,0-.17h0v0h0c0-.08-.09,0-.09.07V5h0c0,.06,0,.1.06.15s0,.2.07.3h0a.79.79,0,0,1,0,.13h0s0,0,0,0h0c.07.45-.22.88-.32,1.31h0s0,0,0,0h0l0,.05v0h0l-.06.23c0-.4,0-.81,0-1.22v0l0,0L85.6,6h0a.15.15,0,0,0,0-.13c0-.07-.05-.09-.09,0h0c0-.08-.09,0-.11.12s0,.14.06.16h0a12.66,12.66,0,0,1-.11,1.64h0v0a1.54,1.54,0,0,0,0,.17,5.94,5.94,0,0,1-.28.74c.09-1.37-.36-2.76-.11-4.11h0s0,0,0,0l0,0A4.59,4.59,0,0,0,85.23,4c.1,0,.11-.17.08-.26a0,0,0,0,0,0,0s0,0,0,0-.21.19-.1.28c-.07.16-.18.31-.26.47,0-.29.06-.57.08-.86.09,0,.12-.27,0-.29a.16.16,0,0,0-.08.31A12.52,12.52,0,0,1,84.78,5c-.06-.32-.15-.63-.18-1,0,0,0,0,0,0a5.84,5.84,0,0,1,.18-.83l0-.08h0a6,6,0,0,0,.42-.73h0a.19.19,0,0,0,.15-.27s0-.12,0-.12-.27.19-.19.33h0v0c0,.06-.06.12-.08.17s-.19.28-.27.43A3.87,3.87,0,0,0,85,1.75h0c.2-.1.07-.31-.07-.41h0c-.06-.11-.11,0-.12.13v0h0a.25.25,0,0,0,.12.25,12.68,12.68,0,0,1-.41,2c-.06-.26-.11-.53-.19-.79.42-.06.41-.44.44-.77,0,0,0,0,0-.07s-.08,0-.12,0a.32.32,0,0,0-.22.17s0,0,0,0,0,0-.06-.08h0v0h0a.4.4,0,0,0,0-.11V2h0v0h0a4.21,4.21,0,0,0,0-.5,0,0,0,0,0,0,0,1.53,1.53,0,0,0-.08-.37h0a.87.87,0,0,0,.08-.1h0c.05-.11,0-.2-.12-.28s-.08.1-.1.13a.17.17,0,0,0,0,.19l0,.05,0,0a2.86,2.86,0,0,1,.07.28h0q0,.31.06.63h0a0,0,0,0,0,0,0V2h0v.09c0-.07-.12-.11-.18-.17s-.25.22-.26.33h0v0a.12.12,0,0,0-.09,0,.74.74,0,0,1,0-.14h0a1.13,1.13,0,0,1-.05-.32c0-.09.09-.19,0-.27l-.06-.05h0c0-.06-.11,0-.13,0a.14.14,0,0,0,0,.07.22.22,0,0,0,.13.22.86.86,0,0,1,.06.23h0s0,0,0,0h0a.73.73,0,0,0,.06.21c-.39,0-.2.12-.12.32a.34.34,0,0,0-.14,0,.29.29,0,0,0-.16,0c-.06,0-.06,0,0,.06A.77.77,0,0,0,84,3a4.44,4.44,0,0,1,.55,1.51A3.55,3.55,0,0,1,84.23,4l-.07-.14h0c-.08-.19-.19-.37-.28-.55a.21.21,0,0,0,0-.23s0-.07-.08-.07l0,0h0c-.06,0-.07,0-.07.07a.16.16,0,0,0,.18.22c.06.11.12.22.17.33h0a5.47,5.47,0,0,0,.56,1,18.78,18.78,0,0,1,.2,2c-.1-.19-.22-.37-.33-.55h0a1.86,1.86,0,0,0-.11-.19l0-.14s0-.1,0-.15a1,1,0,0,1,0-.25c0-.1,0-.19,0-.29s.1-.08.11-.14,0-.36-.16-.19h0c-.09-.09-.13.1-.13.16a.23.23,0,0,0,.1.14l0,0h0c0,.1,0,.19,0,.28a3.47,3.47,0,0,0,.06.45,1.88,1.88,0,0,1-.12-.18h0c-.08-.16-.18-.31-.27-.46a1.71,1.71,0,0,0-.13-.23,1.54,1.54,0,0,0,.08-.19h0a.24.24,0,0,0,0-.08.24.24,0,0,0-.06-.19h0l0-.05h0s-.16-.15-.17,0,0,0,0,0h0v0h0s-.1-.07-.11,0h0a.47.47,0,0,0,.26.54h0a.08.08,0,0,1,0,0h0s0,.07.05.1l.09.16h0c.05.11.11.2.17.31l-.1-.09h0l-.06,0-.07,0a1.89,1.89,0,0,1-.2-.2c0-.07,0-.15-.1-.18l0,0a.08.08,0,0,0-.08,0h0s-.07,0-.07,0a.15.15,0,0,0,.07.13l0,0h0l.06,0h0l.09,0a4.19,4.19,0,0,0,.45.39,2.43,2.43,0,0,1,.43.63,2.4,2.4,0,0,0-.26-.18h0L84.07,6a2.25,2.25,0,0,0-.21-.12s0-.12-.06-.16h0s-.13-.09-.18,0,0,.14.09.16h0l.12,0a.53.53,0,0,0,.1.06L84,6a1.89,1.89,0,0,1,.82.86,14.42,14.42,0,0,1,.08,2.08c-.16-.48-.37-1-.57-1.42h0v0h0a.2.2,0,0,0-.13-.26.17.17,0,0,0-.07.13c0,.07,0,.15.08.16l.08,0h0a4,4,0,0,1,.47,3,24,24,0,0,1-.5,3.77s0,.05,0,.08a.13.13,0,0,0,0-.06l0-.31h0s0-.06,0-.09c-.08-.65-.21-1.29-.33-1.92,0,0,0,0,0,0,.07-.39.07-.79.13-1.18h0c.08-.26.25-.49.33-.76h0c.09,0,.22-.22.09-.27a.24.24,0,0,0-.12.24.19.19,0,0,1,0,.07,6.46,6.46,0,0,1-.27.6c0-.19,0-.39,0-.59h0c.07-.5-.1-1,0-1.51.07-.1.06-.34-.08-.35h0l0,0h0l0,0h0c-.09.11,0,.26.11.31a9.05,9.05,0,0,1,0,1.27c0-.07,0-.15-.08-.23s-.13-.42-.21-.62h0a.27.27,0,0,0,0-.27s-.06-.08-.07,0-.12.28,0,.31,0,0,0,0h0l.06,0a4.5,4.5,0,0,1,.16.48h0v0h0v0c0,.11.07.2.1.31s0,0,0,.06c0,.55-.09,1.09-.12,1.64h0a1.46,1.46,0,0,0,0,.22c-.2-.84-.47-1.64-.59-2.5l0,0h0a.25.25,0,0,0,0-.34h0s0-.07-.06-.1,0-.17-.09-.09a.13.13,0,0,0,0,.05h0s0,0,0-.05h0s0,0,0-.05,0,0,0,0l0-.08h0a.24.24,0,0,0,0-.12.14.14,0,0,0,0-.08s0,0-.07,0,0,.05-.06.07,0,.16.09.19h0l0,0v0s0,0,0,0a.06.06,0,0,1,0,0h0s0,0,0,.06h0a.08.08,0,0,0,0,.05h0v0h0s0,.07,0,.1l-.07-.07h0a.29.29,0,0,0-.22-.07.85.85,0,0,0,0,.42.5.5,0,0,0-.13,0h0c-.06,0-.23,0-.24.08a1.06,1.06,0,0,1,.15.15c.14.22.32.15.53.12s.16.33.23.48a6.36,6.36,0,0,1,.35,1c-.24-.31-.5-.59-.74-.9h0v0h0a.07.07,0,0,0,0,0c0-.07-.2-.25-.19-.12-.12,0-.08.1,0,.16a.3.3,0,0,0,.23.11c.24.3.47.62.73.91v0h0l0,0h0a14.06,14.06,0,0,1,.42,2v0h0l0-.08c-.08-.18-.2-.33-.28-.5s-.34-.59-.53-.87c.13-.13-.06-.36-.21-.36h0s-.06,0-.06.09.09.35.26.3l.19.29h0a.3.3,0,0,0,0,.08,5.7,5.7,0,0,1,.3.54l-.2-.2,0,0c-.09-.1-.22-.17-.31-.26s-.11-.22-.21-.17a.24.24,0,0,0,.19.21,2.78,2.78,0,0,1,.27.21l0,0h0l0,0h0l.15.15h0s.06.09.1.12l0,0a1.13,1.13,0,0,1,.12.18,1.73,1.73,0,0,1,.26.85h0a11.08,11.08,0,0,1-.58,3.62s0,.08,0,.11.12.08.14,0c.08-.28.45-1.78.55-2.1A12.42,12.42,0,0,0,85.11,14s0,0,.06,0a.2.2,0,0,0,.09-.09c0-.06.06-.21,0-.19s-.16.05-.17.12a.43.43,0,0,0,0,.11h0v0a13.46,13.46,0,0,1-.92,1.48,23.69,23.69,0,0,0,.67-3.82c-.07-1,.38-1.29.65-2.14a.25.25,0,0,0,.1-.17h0c0-.33-.36,0-.17.15l0,0a4.92,4.92,0,0,1-.53,1.08A10.39,10.39,0,0,0,85,8.86a6.66,6.66,0,0,0,.33-.72h0a2.18,2.18,0,0,0,.26-.34h0l0,0a2.68,2.68,0,0,0,.18-.28h0s0,0,0,0h0A1.74,1.74,0,0,0,86,7.24h0a2.75,2.75,0,0,0,.24-.41h0l.06-.05h0c.08,0,.11-.29,0-.23h0c-.08,0-.15.11-.11.19h0v0h0v0h0a0,0,0,0,0,0,0,4.72,4.72,0,0,1-.33.53.35.35,0,0,0,0,.08h0l-.08.14-.12.19v0h0l0,0h0a2.2,2.2,0,0,1-.17.25,1.82,1.82,0,0,0,.07-.25s0-.07,0-.11a5.26,5.26,0,0,0,.15-.53h0c.21-.59.71-1.08,1-1.66l0,0h0a.25.25,0,0,0,.1-.15v0a.13.13,0,0,0,0-.06s0,0,0,0h0c-.1,0-.21.1-.18.21v0h0l0,0,0,0c-.23.46-.59.87-.84,1.33a15.18,15.18,0,0,0,.49-2c.18-.11.32.08.57-.19h0Zm-.19.71a.25.25,0,0,1,.08-.14h0a.17.17,0,0,1,0,.07.18.18,0,0,1-.08.14s0,0,0,0h0Zm0,0v0h0a0,0,0,0,0,0,0v0a0,0,0,0,1,0,0h0a0,0,0,0,1,0,0,.15.15,0,0,1,0-.09h0l.05,0h0A.26.26,0,0,0,86.57,5.39Zm-.28,1.17h0s0,0,0,.06a0,0,0,0,1,0,0s0,.06-.05.08h0l0,0A.2.2,0,0,1,86.29,6.56Zm-.09,0a.25.25,0,0,0,0,.15h0a.11.11,0,0,1,0-.08v0Zm-.8,2.77a.11.11,0,0,1,0-.11A.2.2,0,0,0,85.4,9.37Zm0,0h0Zm0,0a.16.16,0,0,1,0-.21s0,0,0,.05a.14.14,0,0,1,0,.12h0Zm-.33,4.51c0-.08,0-.18.13-.22s0,0,0,.05a.24.24,0,0,1,0,.09A.13.13,0,0,1,85.12,13.91Zm0-.2a.16.16,0,0,0-.06.08h0a.13.13,0,0,0,0,.06h0C85.08,13.78,85.1,13.71,85.17,13.71ZM83,12.21h0a.22.22,0,0,1-.11-.14h0A.13.13,0,0,1,83,12.21Zm0-.45h0a.26.26,0,0,1-.13-.28h0v-.05h0A.31.31,0,0,0,83,11.76Zm0,0c-.12-.05-.14-.19-.14-.3l0,0C83,11.52,83.14,11.65,83.05,11.74Zm-.38-1.57h0a.19.19,0,0,1-.09-.17h0A.22.22,0,0,0,82.67,10.17Zm.07,0a.16.16,0,0,1-.1-.11h0s0-.08,0-.12l0,0a.18.18,0,0,1,.1.15h0s0,0,0,0h0Zm.11-1.67,0,.06h0a.09.09,0,0,1-.06-.14A.19.19,0,0,0,82.85,8.5Zm.08.06a.35.35,0,0,1-.05-.08.31.31,0,0,1,0-.1h0a.13.13,0,0,1,.07.08A.17.17,0,0,1,82.93,8.56Zm0,1h0l-.12,0c-.25.07-.33-.13-.49-.26h0l.17,0C82.71,9.26,82.75,9.44,83,9.52Zm0,0a1.25,1.25,0,0,0-.12-.08h0l0,0a.28.28,0,0,1-.1-.21h0a1.21,1.21,0,0,0,0-.19.36.36,0,0,1,0-.11h0l.1,0h0A.46.46,0,0,1,83,9.48Zm.23-.18h0l-.11.11,0,0,0,.06c0-.1.07-.18.07-.29s-.06-.17,0-.26a.24.24,0,0,1,0-.08l0-.05h0a.45.45,0,0,0,.11.19h0a.35.35,0,0,1,.05.08h0v.05A.22.22,0,0,1,83.2,9.3Zm.1.87-.15-.4c0-.11-.16-.23,0-.32l.06-.06c0,.21.08.42.11.64v.11S83.31,10.16,83.3,10.17ZM83.62,9h-.05a.12.12,0,0,1-.06-.12h0a.22.22,0,0,1,0-.14h0A.26.26,0,0,0,83.62,9Zm0,0h0a.15.15,0,0,1-.06-.09h0a.49.49,0,0,1,0-.17h0A.23.23,0,0,1,83.65,9Zm.25-.43,0,0a.16.16,0,0,1,0-.21h0C83.82,8.38,83.88,8.47,83.9,8.55Zm0,0c0-.09-.09-.19,0-.29h0v0l0,0h0l0,.06h0A.25.25,0,0,1,83.94,8.55Zm.4,1.29.06-.08a.11.11,0,0,1,0,.05.13.13,0,0,1,0,.09h0l0,0A.16.16,0,0,1,84.34,9.84Zm-.08-2.35h0a.11.11,0,0,1-.07-.16A.18.18,0,0,0,84.26,7.49Zm0-.07a.08.08,0,0,0,0,0h0a.17.17,0,0,1-.09-.2h0a.23.23,0,0,1,.1.16Zm-.5-1.58h0l-.05,0h0s0-.08-.06-.12h0l.07,0A.1.1,0,0,1,83.8,5.84Zm-.26-.65h-.06l-.1,0h0a.24.24,0,0,1-.05-.1h.09l.06,0h0S83.53,5.15,83.54,5.19Zm.07-.3h0a.44.44,0,0,1-.15-.45h0l.07,0A.62.62,0,0,0,83.61,4.89Zm.09,0a.15.15,0,0,1-.06,0h0l0,0a.66.66,0,0,1-.06-.31h0s0-.08,0-.11h0a.06.06,0,0,1,0,0h0l.11.09h0a.25.25,0,0,1,.08.1.3.3,0,0,1,0,.1h0A1.25,1.25,0,0,1,83.7,4.93Zm.46.1h0a.18.18,0,0,1-.09-.13h0s0,0,0,0h0l0-.1,0,0h0v0h0C84.08,4.88,84.13,5,84.16,5Zm0,0a.47.47,0,0,1-.06-.15h0l0,0h0l0-.06C84.29,4.64,84.32,5,84.2,5ZM83.81,3.3h0c-.11,0-.09-.16-.07-.24h0C83.75,3.15,83.73,3.24,83.81,3.3Zm0,0c-.06,0-.07-.1-.06-.15s0,0,0,0a.13.13,0,0,0,0-.06h0v0a.2.2,0,0,1,0,.18S83.85,3.28,83.85,3.29Zm-.18-1.52h0s0,0-.06,0a.17.17,0,0,1,0-.14h0a.09.09,0,0,1,0-.06h0C83.64,1.61,83.7,1.69,83.67,1.77Zm.07,0,0,0h0c0-.06,0-.13,0-.2l0,0h0a0,0,0,0,0,0,0l0,.06h0S83.74,1.71,83.74,1.73ZM84.18,1h0s0,0,0,0,0,0,0-.06h0A.3.3,0,0,0,84.18,1Zm0,0a.25.25,0,0,1,0-.17.29.29,0,0,1,0-.09l0,.08h0A.2.2,0,0,1,84.23,1Zm0,0a.34.34,0,0,0,0-.2h0a0,0,0,0,1,0,0,.11.11,0,0,1,0,.11h0Zm-.61,1.62s0,0,0,.06h0A.49.49,0,0,0,84,3V3h0l-.15,0a.82.82,0,0,1-.36-.24l0,0,.08,0A.34.34,0,0,1,83.65,2.63Zm.26-.27a.62.62,0,0,0,.29.55h-.09a.44.44,0,0,1-.36-.27h0a1.07,1.07,0,0,0-.1-.22s-.05-.05-.06-.09h0a.79.79,0,0,1,.22,0l.06,0Zm.48.54c.15-.16.11-.39.15-.58l0-.08a.18.18,0,0,1,.18-.11.17.17,0,0,0,0,.07h0a2.6,2.6,0,0,0,0,.26.45.45,0,0,1-.26.42h0Zm-.11,0h0a.65.65,0,0,1-.12-.11l0,0S84,2.65,84,2.6h0a.3.3,0,0,1,0-.1h0a.33.33,0,0,1,0-.14V2.27h0l0-.1a1,1,0,0,1,.1-.21,1.56,1.56,0,0,1,.31.37h0a.31.31,0,0,1,0,.19A.52.52,0,0,1,84.28,2.89Zm.16.87a.41.41,0,0,0-.07-.11c-.07-.14-.13-.27-.21-.41h0l0,0L84.05,3l.2,0C84.33,3.23,84.38,3.5,84.44,3.76ZM85,1.53a.43.43,0,0,1,0,.16h0l0,0h0a.2.2,0,0,1,0-.08.39.39,0,0,1,0-.21C84.94,1.42,85,1.47,85,1.53Zm0-.16,0,0c0,.06.12.16.06.23C85.08,1.55,85,1.46,85,1.37Zm.27.93h0a.26.26,0,0,0,.13-.23h0C85.4,2.17,85.36,2.31,85.23,2.3Zm0-.23s0,0,.06,0,0,.19-.1.23A.23.23,0,0,1,85.28,2.07Zm-.08.17h0v0s0,0,0,0ZM85,3.36h0a.22.22,0,0,0-.06.17h0v0A.11.11,0,0,1,85,3.36Zm0,.22a.07.07,0,0,1,0-.06h0a0,0,0,0,1,0,0v0h0a.36.36,0,0,1,.07-.1v0C85.06,3.47,85.06,3.55,85,3.58Zm.3.2v.08a.17.17,0,0,1-.06.11A.26.26,0,0,1,85.29,3.78Zm-.06,0a.26.26,0,0,0,0,.15h0A.13.13,0,0,1,85.23,3.8Zm.28,2s0,0,0,0h0a.2.2,0,0,0,0,.15l0,0h0a.12.12,0,0,1,0-.08.37.37,0,0,1,0-.11h0S85.5,5.83,85.51,5.84Zm0,.19a.24.24,0,0,1,0-.08l0,0h0l0-.07v0A.27.27,0,0,1,85.52,6Zm.33-1s0,0,0,.06l0,0s0,0,0,0h0a.14.14,0,0,1,0-.09h0v0h0s0,0,0,0a.18.18,0,0,1,0,.1Zm.33-.29s0,0-.06,0L86,4.57a.14.14,0,0,1-.06-.12h0a.46.46,0,0,1,0-.23l0,.06,0,0a.18.18,0,0,1,0,.09A2.17,2.17,0,0,0,86.18,4.75Zm.19-.2h0a.75.75,0,0,0-.14.17h0a.14.14,0,0,0,0-.06c0-.09-.09-.18,0-.27a1.84,1.84,0,0,1,.17-.22C86.35,4.3,86.43,4.43,86.37,4.55Zm.24-.07a.09.09,0,0,0,0,.07h0s0,0,0,0h0a.24.24,0,0,1-.06.09,1.17,1.17,0,0,1-.25.07l.1-.12a.22.22,0,0,0,.05-.11h0s.1-.13.18-.12S86.61,4.45,86.61,4.48Zm.17.18h0a.53.53,0,0,1-.15.11h0c-.1,0-.22,0-.32,0s0,0,0,0v0c.08,0,.18,0,.25-.08l.06,0s0,0,0,0Z"/><path class="cls-3" d="M83.92,2.31Z"/><polygon class="cls-3" points="83.98 2.27 83.98 2.27 83.98 2.27 83.98 2.27"/><polygon class="cls-3" points="84.42 2.33 84.42 2.33 84.42 2.33 84.42 2.33"/><polygon class="cls-3" points="83.7 2.7 83.7 2.69 83.7 2.7 83.7 2.7"/><path class="cls-3" d="M83.71,2.7h0Z"/><polygon class="cls-3" points="83.75 2.63 83.75 2.63 83.75 2.63 83.75 2.63"/><polygon class="cls-3" points="84.74 2.2 84.74 2.2 84.74 2.2 84.74 2.2"/><polygon class="cls-3" points="84.44 2.88 84.44 2.88 84.44 2.88 84.44 2.88"/><path class="cls-3" d="M83.72,2.09Z"/><path class="cls-3" d="M84.4,2.15Z"/><polygon class="cls-3" points="84.4 2.15 84.4 2.14 84.4 2.15 84.4 2.15"/><path class="cls-3" d="M84.26.71h0Z"/><polygon class="cls-3" points="84.32 0.93 84.32 0.92 84.32 0.93 84.32 0.93"/><path class="cls-3" d="M83.67,1.5Z"/><polygon class="cls-3" points="83.75 1.66 83.75 1.66 83.75 1.66 83.75 1.66"/><polygon class="cls-3" points="83.7 1.59 83.7 1.59 83.7 1.59 83.7 1.59"/><polygon class="cls-3" points="86.37 4.55 86.37 4.55 86.37 4.55 86.37 4.55"/><path class="cls-3" d="M86.24,4.18h0Z"/><path class="cls-3" d="M86.3,4.73Z"/><polygon class="cls-3" points="86.59 4.55 86.59 4.55 86.59 4.55 86.59 4.55"/><path class="cls-3" d="M86.45,4.5h0Z"/><path class="cls-3" d="M86.64,4.49Z"/><path class="cls-3" d="M86.33,4.73Z"/><path class="cls-3" d="M85.87,4.41Z"/><polygon class="cls-3" points="86.06 4.39 86.06 4.39 86.06 4.39 86.06 4.39"/><polygon class="cls-3" points="85.9 4.45 85.9 4.45 85.9 4.45 85.9 4.45"/><path class="cls-3" d="M86.77,4.71Z"/><polygon class="cls-3" points="86.58 4.8 86.58 4.8 86.58 4.8 86.58 4.8"/><polygon class="cls-3" points="84.16 4.83 84.16 4.83 84.16 4.83 84.16 4.83"/><polygon class="cls-3" points="84.13 4.81 84.13 4.81 84.13 4.81 84.13 4.81"/><polygon class="cls-3" points="84.14 4.88 84.14 4.88 84.14 4.88 84.14 4.88"/><polygon class="cls-3" points="84.06 4.89 84.06 4.89 84.06 4.89 84.06 4.89"/><path class="cls-3" d="M84.15,4.74Z"/><path class="cls-3" d="M84.15,5.07Z"/><polygon class="cls-3" points="84.07 4.85 84.07 4.85 84.07 4.85 84.07 4.85"/><path class="cls-3" d="M83.41,5.18Z"/><path class="cls-3" d="M83.71,5.82Z"/><polygon class="cls-3" points="83.7 5.7 83.7 5.7 83.7 5.7 83.7 5.7"/><path class="cls-3" d="M85.87,5.45h0Z"/><path class="cls-3" d="M85.92,5.64h0Z"/><path class="cls-3" d="M85.85,4.93h0Z"/><path class="cls-3" d="M85.86,5.1Z"/><path class="cls-3" d="M85.83,4.9Z"/><polygon class="cls-3" points="85.78 5.03 85.78 5.03 85.78 5.03 85.78 5.03"/><polygon class="cls-3" points="85.8 4.92 85.8 4.92 85.8 4.92 85.8 4.92"/><polygon class="cls-3" points="85.79 4.94 85.79 4.94 85.79 4.94 85.79 4.94"/><polygon class="cls-3" points="85.85 5.04 85.85 5.04 85.85 5.04 85.85 5.04"/><path class="cls-3" d="M85.43,6h0Z"/><path class="cls-3" d="M85.46,5.79Z"/><polygon class="cls-3" points="85.51 5.83 85.51 5.83 85.51 5.83 85.51 5.83 85.51 5.83"/><polygon class="cls-3" points="85.49 5.81 85.49 5.81 85.49 5.8 85.49 5.81"/><path class="cls-3" d="M86.64,5.48Z"/><polygon class="cls-3" points="86.62 5.46 86.62 5.46 86.62 5.46 86.62 5.46"/><polygon class="cls-3" points="86.57 5.41 86.57 5.41 86.57 5.41 86.57 5.41"/><polygon class="cls-3" points="86.61 5.41 86.61 5.41 86.61 5.41 86.61 5.41"/><path class="cls-3" d="M86.69,5.19Z"/><polygon class="cls-3" points="86.57 5.31 86.57 5.31 86.57 5.31 86.57 5.31"/><polygon class="cls-3" points="86.69 5.19 86.69 5.19 86.69 5.19 86.69 5.19"/><polygon class="cls-3" points="86.62 5.26 86.62 5.26 86.62 5.26 86.62 5.26"/><path class="cls-3" d="M83.84,11.62Z"/><path class="cls-3" d="M84,8.27h0Z"/><path class="cls-3" d="M84,8.27Z"/><polygon class="cls-3" points="83.98 8.29 83.98 8.29 83.98 8.29 83.98 8.29"/><polygon class="cls-3" points="83.91 8.19 83.91 8.19 83.91 8.19 83.91 8.19"/><path class="cls-3" d="M83.91,8.19Z"/><path class="cls-3" d="M83.86,8.23h0Z"/><polygon class="cls-3" points="82.72 9.16 82.72 9.16 82.72 9.15 82.72 9.16"/><path class="cls-3" d="M82.76,8.86Z"/><path class="cls-3" d="M83.1,9.19Z"/><polygon class="cls-3" points="82.86 8.9 82.86 8.9 82.86 8.9 82.86 8.9"/><path class="cls-3" d="M82.36,9.27h0Z"/><path class="cls-3" d="M83.25,9.32Z"/><polygon class="cls-3" points="83.2 9.3 83.2 9.3 83.2 9.3 83.2 9.3"/><polygon class="cls-3" points="83.26 9.12 83.26 9.12 83.26 9.12 83.26 9.12"/><path class="cls-3" d="M83.25,9.31h0Z"/><path class="cls-3" d="M83.23,9Z"/><polygon class="cls-3" points="83.81 9.53 83.81 9.53 83.81 9.53 83.81 9.53"/><path class="cls-3" d="M83.81,9.53h0Z"/><polygon class="cls-3" points="83.59 8.89 83.59 8.89 83.59 8.89 83.59 8.89"/><path class="cls-3" d="M83.68,9Z"/><path class="cls-3" d="M83.68,9Z"/><path class="cls-3" d="M83.68,9h0Z"/><path class="cls-3" d="M83.68,9Z"/><polygon class="cls-3" points="83.65 8.98 83.65 8.98 83.65 8.98 83.65 8.98"/><polygon class="cls-3" points="83.56 8.72 83.55 8.72 83.56 8.72 83.56 8.72"/><polygon class="cls-3" points="83.51 8.86 83.51 8.86 83.51 8.86 83.51 8.86"/><path class="cls-3" d="M84,10.79Z"/><polygon class="cls-3" points="84.36 9.9 84.36 9.9 84.36 9.9 84.36 9.9"/><path class="cls-3" d="M84.36,9.91h0Z"/><path class="cls-3" d="M82.78,10.12Z"/><polygon class="cls-3" points="82.78 10.18 82.78 10.18 82.78 10.18 82.78 10.18 82.78 10.18 82.78 10.18 82.78 10.18 82.78 10.18 82.78 10.18 82.78 10.18"/><polygon class="cls-3" points="82.64 10.06 82.64 10.06 82.64 10.06 82.64 10.06"/><polygon class="cls-3" points="82.75 10.11 82.75 10.11 82.75 10.11 82.75 10.11"/><polygon class="cls-3" points="82.54 9.99 82.54 9.99 82.54 9.99 82.54 9.99"/><polygon class="cls-3" points="82.64 10.16 82.64 10.16 82.64 10.16 82.64 10.16"/><polygon class="cls-3" points="82.57 9.98 82.56 9.98 82.57 9.98 82.57 9.98"/><path class="cls-3" d="M83.94,13.22h0Z"/><path class="cls-3" d="M82.88,11.45Z"/><path class="cls-3" d="M82.81,11.42Z"/><path class="cls-3" d="M82.81,11.61Z"/><path class="cls-3" d="M82.86,11.4Z"/><path class="cls-3" d="M83.66,12.84Z"/><path class="cls-3" d="M83.54,12.65h0Z"/><path class="cls-3" d="M83.38,12.5h0Z"/><polygon class="cls-3" points="84.29 7.42 84.29 7.42 84.29 7.42 84.29 7.42"/><polygon class="cls-3" points="85.11 13.79 85.11 13.79 85.11 13.79 85.11 13.79"/><path class="cls-3" d="M85.17,13.94Z"/><path class="cls-3" d="M85.17,13.94Z"/><path class="cls-3" d="M85.17,13.94Z"/><path class="cls-3" d="M85.07,13.89h0Z"/><path class="cls-3" d="M85.57,9.28Z"/><path class="cls-3" d="M85.57,9.28Z"/><path class="cls-3" d="M85.4,9.37h0Z"/><path class="cls-3" d="M83,8.87h0Z"/><path class="cls-3" d="M83,8.77h0Z"/><polygon class="cls-3" points="83.02 8.87 83.02 8.87 83.02 8.87 83.02 8.87"/><path class="cls-3" d="M83.3,10.06h0Z"/><path class="cls-3" d="M83.38,10.32Z"/><path class="cls-3" d="M82.92,8.37Z"/><path class="cls-3" d="M82.85,8.5Z"/><path class="cls-3" d="M83,8.45h0Z"/><path class="cls-3" d="M83,8.58h0Z"/><polygon class="cls-3" points="82.89 8.56 82.89 8.56 82.89 8.56 82.89 8.56"/><polygon class="cls-3" points="82.89 8.56 82.89 8.56 82.89 8.56 82.89 8.56 82.89 8.56 82.89 8.56 82.89 8.56"/><path class="cls-3" d="M82.89,8.6Z"/><path class="cls-3" d="M85.36,8.14Z"/><path class="cls-3" d="M86,7.23Z"/><path class="cls-3" d="M86.11,7Z"/><path class="cls-3" d="M85.55,7.82Z"/><path class="cls-3" d="M85.62,7.8Z"/><path class="cls-3" d="M85.57,7.79Z"/><path class="cls-3" d="M85.85,7.42Z"/><path class="cls-3" d="M86.27,6.77h0Z"/><path class="cls-3" d="M86.24,6.73Z"/><polygon class="cls-3" points="86.24 6.73 86.24 6.73 86.24 6.73 86.24 6.73"/><path class="cls-3" d="M86.3,6.62Z"/><path class="cls-3" d="M86.27,6.76Z"/><polygon class="cls-3" points="86.29 6.57 86.29 6.57 86.29 6.57 86.29 6.57"/><path class="cls-3" d="M86.17,6.75Z"/><path class="cls-3" d="M86.14,6.77Z"/><path class="cls-3" d="M86.15,6.79h0Z"/><polygon class="cls-3" points="86.13 6.74 86.13 6.74 86.13 6.74 86.13 6.74"/><path class="cls-3" d="M86.26,6.53Z"/><path class="cls-3" d="M83.71,4.42Z"/><polygon class="cls-3" points="83.8 4.66 83.8 4.66 83.8 4.66 83.8 4.66"/><polygon class="cls-3" points="83.55 4.52 83.55 4.52 83.55 4.52 83.55 4.52"/><path class="cls-3" d="M83.73,4.43Z"/><polygon class="cls-3" points="83.64 4.88 83.64 4.88 83.63 4.88 83.64 4.88"/><polygon class="cls-3" points="83.64 4.88 83.64 4.88 83.64 4.88 83.64 4.88"/><polygon class="cls-3" points="83.57 4.88 83.57 4.88 83.57 4.88 83.57 4.88"/><polygon class="cls-3" points="83.64 4.95 83.63 4.95 83.64 4.95 83.64 4.95"/></svg>