<?xml version="1.0" ?><!DOCTYPE svg  PUBLIC '-//W3C//DTD SVG 1.1//EN'  'http://www.w3.org/Graphics/SVG/1.1/DTD/svg11.dtd'><svg enable-background="new 0 0 32 32" height="32px" id="Layer_1" version="1.1" viewBox="0 0 32 32" width="32px" xml:space="preserve" xmlns="http://www.w3.org/2000/svg" xmlns:xlink="http://www.w3.org/1999/xlink"><g><polyline fill="none" points="   649,137.999 675,137.999 675,155.999 661,155.999  " stroke="#FFFFFF" stroke-linecap="round" stroke-linejoin="round" stroke-miterlimit="10" stroke-width="2"/><polyline fill="none" points="   653,155.999 649,155.999 649,141.999  " stroke="#FFFFFF" stroke-linecap="round" stroke-linejoin="round" stroke-miterlimit="10" stroke-width="2"/><polyline fill="none" points="   661,156 653,162 653,156  " stroke="#FFFFFF" stroke-linecap="round" stroke-linejoin="round" stroke-miterlimit="10" stroke-width="2"/></g><path d="M29.756,3.655c0.256-0.296,0.316-0.714,0.153-1.07C29.747,2.229,29.392,2,29,2H11c-0.552,0-1,0.448-1,1s0.448,1,1,1h15.81  l-2.908,3.356c-2.603-1.158-5.675-0.864-7.993,0.838c-2.111,1.55-4.936,1.558-7.055,0.034L5.19,4H7c0.552,0,1-0.448,1-1S7.552,2,7,2  H3C2.608,2,2.253,2.229,2.09,2.584c-0.163,0.356-0.103,0.774,0.154,1.07L15,18.374V28h-4c-0.552,0-1,0.447-1,1s0.448,1,1,1h10  c0.553,0,1-0.447,1-1s-0.447-1-1-1h-4v-9.626L29.756,3.655z M12.352,11.369c1.66,0,3.321-0.521,4.74-1.563  c1.57-1.154,3.605-1.446,5.425-0.853L16,16.473l-4.481-5.17C11.797,11.332,12.074,11.369,12.352,11.369z"/></svg>