<svg id="Camada_1" data-name="Camada 1" xmlns="http://www.w3.org/2000/svg" viewBox="0 0 55.53 211.29"><defs><style>.cls-1{fill:#fff;stroke:#1d1d1b;stroke-miterlimit:10;}</style></defs><title>taca_seloPrancheta 1</title><path class="cls-1" d="M45.22,202.06H9.08a1,1,0,0,1-1-1v-.27A1.8,1.8,0,0,1,9.85,199c13.12-.35,15.46-6.14,15.73-19,0-.46,0-.79,0-1h0v-2.67c0-12.41-1.64-16.87-4.64-25-.82-2.23-1.75-4.75-2.78-7.78l-.48-1.47c-1.23-3.76-4-12.46-10-32.6l-.11-.35a1.15,1.15,0,0,1,1.1-1.48H45.62a1.14,1.14,0,0,1,1.1,1.48c-1.34,4.47-8.17,27.15-10.62,34.42-1,3-2,5.57-2.78,7.8-3,8.09-4.64,12.55-4.64,25v1.71c0,.34,0,.34,0,.61l0,1.36c.27,12.84,2.6,18.63,15.73,19a1.8,1.8,0,0,1,1.74,1.79v.27A1,1,0,0,1,45.22,202.06Zm-.32-91.62a1.31,1.31,0,0,0-1.25-1.69l-33.4,0A1.33,1.33,0,0,0,9,110.43c5.72,18.95,8.49,27.77,9.68,31.41l.48,1.46c1,3,1.95,5.53,2.77,7.75,3,8.21,4.7,12.73,4.7,25.32v3.08c0,.15,0,.35,0,.63C26.3,193.3,23.73,199.66,9.88,200a.75.75,0,0,0-.4.12.78.78,0,0,0-.37.67v.24H45.19v-.24a.79.79,0,0,0-.77-.79c-13.85-.37-16.42-6.73-16.7-20l0-1.35c0-.29,0-.29,0-.65v-1.7c0-12.58,2.1-17,4.7-25.3C36.54,137.72,43,116.52,44.9,110.44Z"/><path class="cls-1" d="M10,111c.66,2.17,7.66,25.19,9.59,31.17a1.31,1.31,0,0,0,1.24.91h0c-1.5-4.52-8.3-26.82-9.62-31.18A1.25,1.25,0,0,0,10,111Z"/><path class="cls-1" d="M21.43,199.89H45.17a1.26,1.26,0,0,0-.66-.21c-15.62-.42-16.26-8.73-16.26-24.06,0-.89.32-9.29.32-10.23-.29,0-1.4,6.11-1.35,10.47.05,4.57,0,18.29,0,18.29a5.69,5.69,0,0,0,2.25,4.55.2.2,0,0,1-.12.36h-5C23.92,199.06,21.43,199.43,21.43,199.89Z"/><path class="cls-1" d="M21.78,145.09c1.18,3.45,2.15,5.82,2.89,8.1a2.36,2.36,0,0,0,3.65,1.25,2.48,2.48,0,0,0,.85-1.2c.74-2.29,1.72-4.67,2.91-8.15h-.27a.88.88,0,0,0-.77.45c-.58,1-2.16,3.49-4.11,3.49s-3.48-2.48-4.08-3.5a.88.88,0,0,0-.76-.44Z"/><path class="cls-1" d="M27.6,143.09H26.3A5.57,5.57,0,0,1,21,139.35s-5.26-16.8-7.51-24.18a2.44,2.44,0,0,1,.29-2A2.48,2.48,0,0,1,15.58,112c2-.27,5.75-.27,12.81,1.24a44.37,44.37,0,0,1,11.83-.55.76.76,0,0,1,.55.33.75.75,0,0,1,.09.62c-2.47,8.11-8,25.75-8,25.75A5.56,5.56,0,0,1,27.6,143.09ZM22,139c1.15,3.23,9,3,11.29-3.75,1.84-5.45,3.57-11.73,6.06-19.92A1.37,1.37,0,0,0,38,113.54a38.6,38.6,0,0,0-13,1.58,29.77,29.77,0,0,1-9.12,1.78.64.64,0,0,0-.61.82C17.56,125.06,20.09,133.73,22,139Zm-5.33-23.5c.83.42,2.19.65,8.13-1.31.43-.14.86-.27,1.3-.39-5.56-1-7.14-1.28-8.79-1C15,113.29,15.7,115,16.62,115.48Z"/><path class="cls-1" d="M28.51,31.16h0Z"/><path class="cls-1" d="M34.19,15.2v0Z"/><path class="cls-1" d="M35.09,14.12Z"/><path class="cls-1" d="M35.13,14.16l0,0Z"/><path class="cls-1" d="M38.17,19.6h0Z"/><path class="cls-1" d="M26.71,28.27l0,0Z"/><path class="cls-1" d="M26.57,26.51h0Z"/><polygon class="cls-1" points="35.13 29.81 35.13 29.81 35.13 29.8 35.13 29.81"/><path class="cls-1" d="M37.28,31.57h0Z"/><polygon class="cls-1" points="29.82 9.63 29.82 9.62 29.82 9.62 29.82 9.63 29.82 9.63"/><path class="cls-1" d="M29.17,10.31v0Z"/><path class="cls-1" d="M29.24,11.35h0Z"/><path class="cls-1" d="M31.47,49.15v0Z"/><path class="cls-1" d="M37.87,61s0,0,0,.06Z"/><path class="cls-1" d="M39.42,55.4v0Z"/><path class="cls-1" d="M28.59,106h0Z"/><path class="cls-1" d="M36.05,105.45h0ZM47.86,38.68c.49-.35-.39-.48-.66-.49a1.87,1.87,0,0,0-.53,0h-.11a1.54,1.54,0,0,1,0-.17v0a3.71,3.71,0,0,1,.06-.45h0a.83.83,0,0,0,0-.18v0a2.39,2.39,0,0,0,.12-1c-.64-.34-1.21.21-1.57.71A5.42,5.42,0,0,0,44.86,35a.4.4,0,0,0-.33-.39.49.49,0,0,0-.45.23A9.15,9.15,0,0,0,43,36.53a2.55,2.55,0,0,0-.34-.73,7.63,7.63,0,0,0-.48-.68c-.45-.74-.95,1.18-.84,1.53a1.65,1.65,0,0,0,.82,1.7v0a7.59,7.59,0,0,0,.71.56c.22.22.51.36.62.68,0,0,0,.1.06.12-.39,2.15-1.05,4.25-1.47,6.4,0-.22-.1-.43-.16-.65s-.19-.76-.28-1.13c0,0,0-.05,0-.08-.2-.73-.28-1.48-.46-2.21,0-.09.08-.2.13-.29.34-.39.12-.91-.09-1.29h0s0,0,0,0,0,0,0,0h0a.16.16,0,0,1-.06-.08s0,0,0,0h0c-.26-.61-.62.06-.67.51a1.28,1.28,0,0,0,0,.21v0a2.07,2.07,0,0,0,.45,1.08c.23.72.28,1.5.48,2.21,0,0,0,0,0,0,.08.31.12.62.2.92,0,0,0,0,0,.07s0,0,0,.08a1.87,1.87,0,0,1,.08.32h0s0,0,0,0c.52,3.3-1.5,6.47-2.26,9.64,0,0,0,0,0,.06a2.31,2.31,0,0,1-.1.34h0c0,.14-.08.28-.13.42a.38.38,0,0,1,0,.1c0,.09,0,.17-.05.25v-.1c-.16.57-.32,1.13-.46,1.7.07-3,.27-5.93.18-8.91,0-.09,0-.22,0-.31s.06-.11.12-.15a2.82,2.82,0,0,0,.42-.62s0,0,0-.06a.06.06,0,0,0,0-.05,1.37,1.37,0,0,0,.13-.95c0-.53-.36-.7-.62-.21,0,0,0-.06-.06-.09-.26-.58-.69.14-.77.9a1.13,1.13,0,0,0,.41,1.17s0,.07.07.08c-.33,4,0,8.12-.76,12,0,0,0,.06,0,.08l-.09.37c-.12.43-.23.83-.34,1.26a38.14,38.14,0,0,1-2,5.39C36.09,58,33,47.79,34.68,37.9v0s0,0,0,0a.1.1,0,0,0,0-.07.06.06,0,0,0,0-.05,1.45,1.45,0,0,1,.1-.18c.08-.11.12-.23.2-.32a24.79,24.79,0,0,0,1.81-3.56c.73-.29.8-1.27.61-1.93a.13.13,0,0,0-.2-.15c-.66.36-1.44,1.43-.67,2.06a29,29,0,0,1-1.84,3.43c.19-2.09.42-4.18.6-6.28.6-.21.8-2,.27-2.14-1.34-.13-1.58,1.64-.56,2.28a97.13,97.13,0,0,1-1.3,9.88c-.42-2.34-1.08-4.62-1.28-7-.25.06-.3-.3,0-.26a46.9,46.9,0,0,1,1.19-6.1,3.5,3.5,0,0,0,.24-.56h0c.86-1.87,2.35-3.35,3-5.32l.17,0h.07a1.41,1.41,0,0,0,1.08-1.95c-.12-.23-.07-.87-.36-.87-.95.31-1.92,1.38-1.32,2.42l0,.06c0,.06.06.09.08.14A12.25,12.25,0,0,1,36,22.63c-.58,1.05-1.33,2-1.9,3.09.69-2.78,1.54-5.65,1.36-8.54l.07-.05c1.42-.76.48-2.28-.46-3h0c-.46-.86-.8.32-.86.92l0,.18h0A1.79,1.79,0,0,0,35.08,17c.16,5-2.31,9.77-2.91,14.72-.43-1.93-.75-3.9-1.33-5.8,2.94-.47,2.88-3.26,3.1-5.63a4.73,4.73,0,0,0,0-.54c0-.47-.51-.19-.78-.2a2,2,0,0,0-1.54,1.21c0,.09-.08.17-.1.26-.11-.23-.33-.4-.44-.62v0l0-.29v0c0-.28,0-.55,0-.82,0-.12,0-.21,0-.33s0-.09,0-.14v0c0-.08,0-.15,0-.23s0,0,0,0a20.84,20.84,0,0,0-.29-3.63.6.6,0,0,0,0-.12,15.72,15.72,0,0,0-.61-2.68s0,0,0,0v0c.12-.28.41-.45.54-.73v0c.36-.81-.36-1.46-.8-2.05-.3-.23-.59.7-.73,1a1.27,1.27,0,0,0,.24,1.4,2.33,2.33,0,0,0,.34.36s.07.09.09.14a10,10,0,0,1,.53,2v0h0c.16,1.54.34,3.07.37,4.63v0a.53.53,0,0,0,0,.18.65.65,0,0,0,0,.14v0h0v0c0,.21,0,.44,0,.65-.26-.51-.83-.78-1.22-1.2-1-1.18-1.75,1.59-1.84,2.39v0l0,.23a1.2,1.2,0,0,0-.63-.3c-.09-.33-.19-.65-.27-1,0,0,0,0,0,0a7.49,7.49,0,0,1-.38-2.34c.26-.66.62-1.43-.08-2l-.39-.4h0v0c-.21-.48-.76-.18-.9.21a2.06,2.06,0,0,0-.13.47,1.66,1.66,0,0,0,.89,1.66,5.14,5.14,0,0,1,.47,1.65s0,0,0,.06,0,.07,0,.1v0a8.32,8.32,0,0,0,.42,1.5c-2.69-.33-1.36.87-.84,2.38a1.76,1.76,0,0,0-1-.12,3.3,3.3,0,0,0-1.12.24c-.42,0-.39.2-.12.42a5.34,5.34,0,0,0,4.62,2.52c1.48,3.73,3.7,7,3.85,11.09a31.31,31.31,0,0,1-2.27-3.93c-.15-.34-.3-.68-.46-1,0,0,0,0,0,0-.53-1.39-1.31-2.67-1.93-4a1.69,1.69,0,0,0-.28-1.64c-.09-.14-.34-.52-.52-.54s-.12,0-.14.13v.08c-.45-.32-.5.16-.54.52a1.2,1.2,0,0,0,1.31,1.64c.37.82.8,1.57,1.17,2.39h0a38.12,38.12,0,0,0,3.91,7.66c1.18,4.73.68,9.63,1.36,14.41-.65-1.41-1.53-2.69-2.3-4l0,0c-.21-.49-.55-.91-.78-1.39-.07-.36-.16-.71-.25-1.06s-.14-.72-.25-1.07A7.49,7.49,0,0,1,30,43.79c0-.72-.19-1.44-.21-2.17.3-.29.72-.53.75-1,.2-.69-.33-2.62-1.09-1.4v0a.25.25,0,0,0-.09-.09s0,0,0,0h0c-.61-.71-.85.7-.87,1.13a1.54,1.54,0,0,0,.67,1l.14.15.05,0s0,0,0,0a.15.15,0,0,1,.06,0s0,.05.06.09h0l.06,0c0,.68.2,1.34.21,2A16.73,16.73,0,0,0,30.12,47a10.66,10.66,0,0,1-.88-1.34h0l0-.06c-.57-1.14-1.28-2.21-1.87-3.37-.28-.57-.59-1.11-.9-1.66.19-.47.37-.92.51-1.39h0v0a1.78,1.78,0,0,0,.17-.54,2.12,2.12,0,0,0-.42-1.4s0,0,0,0a1.66,1.66,0,0,0-.32-.33l-.09-.07,0,0c-.35-.33-1.14-1.1-1.22-.38a1.18,1.18,0,0,0,0,.19l0,0,0,.25-.2-.08s0,0-.07,0c-.21,0-.73-.48-.76-.15v.12c-.21,1.52.21,3.33,1.79,3.93a.25.25,0,0,1,.12.08.84.84,0,0,1,.26.27c.05.05.07.1.14.11.13.24.24.47.36.71.2.41.39.82.6,1.21,0,0,0,0,0,0,.37.77.8,1.49,1.2,2.24a7.23,7.23,0,0,0-.72-.61h0l-.4-.33L26.83,44c-.48-.49-1-1-1.44-1.51-.14-.48-.18-1.05-.66-1.33a1.45,1.45,0,0,0-.34-.2.7.7,0,0,0-.55-.09h0c-.34-.12-.48,0-.5.21a1.33,1.33,0,0,0,.47,1,1.57,1.57,0,0,0,.37.22h0a2.87,2.87,0,0,0,.37.15,0,0,0,0,1,0,0,5.68,5.68,0,0,1,.6.26,30.93,30.93,0,0,0,3.15,2.9,18.67,18.67,0,0,1,3.05,4.58c-.58-.5-1.25-.86-1.84-1.34,0,0,0,0,0,0l-.81-.59a13.7,13.7,0,0,0-1.46-.91c-.22-.36-.09-.84-.46-1.15,0,0,0,0,0,0s0,0,0,0c-.26-.29-.95-.64-1.24-.22.05.43.11,1,.58,1.21l0,0c.26.11.56.19.82.28s.51.25.72.42l.39.26c2.74,1.95,4.33,3.17,5.72,6.35.84,5,.42,10.2.6,15.27-1.15-3.56-2.57-7-4-10.48,0,0,0,0,0-.06l.06-.14s0,0,0,0a1.47,1.47,0,0,0-.92-1.88c-.27.09-.45.47-.5.9s.11,1.1.59,1.2a1.19,1.19,0,0,0,.52.11h0c3.52,8.7,5.08,12.35,3.29,21.86C32.71,90.61,32.26,99.94,30,109c-.05.22-.09.43-.15.65,0-.17,0-.33,0-.51-.07-.75-.15-1.48-.23-2.23a0,0,0,0,0,0,0c0-.22-.06-.46-.08-.7-.57-4.71-1.48-9.4-2.28-14,0,0,0-.06,0-.1.5-2.86.47-5.77.87-8.65v0a.11.11,0,0,1,0-.06c.58-1.94,1.77-3.63,2.29-5.59a.45.45,0,0,1,0-.11c.64-.27,1.49-1.6.59-2a1.77,1.77,0,0,0-.8,1.78c0,.17-.1.34-.13.53-.46,1.55-1.36,2.91-1.92,4.41.12-1.44,0-2.89.18-4.32v0c.5-3.64-.66-7.57-.17-11,.5-.71.44-2.46-.55-2.56h0l0,0h0a1.59,1.59,0,0,0-.27.3h0l0,0-.35.36v0h0c-.65.77,0,1.91.77,2.3a70.19,70.19,0,0,1,.37,9.28c-.18-.55-.39-1.1-.58-1.67-.46-1.54-.9-3.08-1.47-4.58v0l0,0v-.08h0s0,0,0,0a2.07,2.07,0,0,0-.31-2c-.1-.16-.41-.58-.53-.22-.87-.48-.83,2.06-.11,2.3a1.23,1.23,0,0,0,.31.19h0a1.21,1.21,0,0,0,.45.16c.45,1.15.76,2.36,1.11,3.54v0a2,2,0,0,1,.07.23v0s0,0,0,0l.07.25c.16.76.52,1.48.74,2.22.06.17.09.35.15.5-.29,4-.65,8-.86,12v0c-.06.55-.18,1.1-.23,1.64-1.38-6.15-3.27-12-4.08-18.29a1.65,1.65,0,0,0,.15-.25s0,0,0,0v0h0a2,2,0,0,0-.1-2.52s0,0,0,0h0c-.13-.26-.34-.49-.45-.76s-.31-1.18-.65-.63c-.07.12-.13.24-.2.38v0a.43.43,0,0,1,0,0s0,0,0,0-.09-.22-.13-.35,0,0,0,0a.64.64,0,0,0,0-.09,2.43,2.43,0,0,0-.13-.38,1.68,1.68,0,0,0-.09-.32,3.24,3.24,0,0,0-.19-.52s0,0,0-.06h0a1.42,1.42,0,0,0,.05-.89,1.12,1.12,0,0,0-.37-.6.72.72,0,0,0-.48-.2c-.27-.07-.36.31-.44.49-.41.51.1,1.16.61,1.36h0s0,0,0,0h0a2.38,2.38,0,0,0,.32.12.33.33,0,0,1,0,.15c0,.07,0,.15.06.2a2.5,2.5,0,0,0,.09.25.25.25,0,0,1,0,.07c.05.15.08.3.12.43s0,0,0,0,0,0,0,0,.08.23.13.35v0l0,.11a.25.25,0,0,1,0,.09s0,.06,0,.11a0,0,0,0,0,0,0c0,.23-.1.46-.11.7a2.89,2.89,0,0,0-.51-.54s0,0,0,0,0,0,0,0A2,2,0,0,0,19.28,69,6.55,6.55,0,0,0,19,72.05a7.67,7.67,0,0,0-.92-.22l0,0a.77.77,0,0,0-.3,0c-.44.06-1.66.14-1.73.62a4.66,4.66,0,0,1,1.06,1.11c1,1.61,2.26,1.07,3.72.83,1.09.54,1.08,2.46,1.63,3.53a53.18,53.18,0,0,1,2.43,7.62c-1.69-2.22-3.54-4.32-5.19-6.57v0a.31.31,0,0,1,0-.1c0-.09,0-.19,0-.29v0a1.44,1.44,0,0,0-.07-.36c0-.48-1.39-1.81-1.32-.85-.84-.23-.59.75-.33,1.19a1.84,1.84,0,0,0,1.56.76c1.7,2.25,3.31,4.55,5.12,6.73a1.19,1.19,0,0,0,.09.15l.09.14c.05.07.08.15.13.22v0a104.61,104.61,0,0,1,3,15.05l-.12-.26,0,0-.33-.61C27,99.32,26.21,98.2,25.6,97c-1.14-2.16-2.36-4.29-3.69-6.35.92-.92-.43-2.63-1.43-2.67a.44.44,0,0,0-.19,0c-.35,0-.4.28-.42.65-.11,1,.65,2.54,1.83,2.18A22.45,22.45,0,0,1,23,92.89h0c.11.19.21.36.3.55.7,1.35,1.53,2.63,2.14,4-.44-.53-1-1-1.46-1.46l-.25-.26c-.61-.74-1.51-1.22-2.13-1.93,0-.73-.8-1.6-1.49-1.22a1.66,1.66,0,0,0,1.33,1.51,17,17,0,0,1,1.89,1.6l.18.18.09.08c.07.07.13.12.19.19l.06.06c.34.37.71.7,1.08,1.05,0,0,0,0,0,0,.28.27.48.63.74.91.07.08.15.17.2.24a11.28,11.28,0,0,1,.84,1.38A13.25,13.25,0,0,1,28.6,106v0c1.22,6.21-2.39,20-4.07,26.58-.06.22-.18.6.14.82s.8.57,1-.17c.55-2.08,3.14-13,3.82-15.37A94.18,94.18,0,0,0,36,106.72c.05-.2.29-.13.44-.23a1.12,1.12,0,0,0,.62-.64c.17-.4.45-1.53-.27-1.38s-1.09.38-1.15.91a2,2,0,0,0,.11.8v0c0,.09,0,.22,0,.33-1.7,3.79-4.27,7.27-6.46,10.83,2.14-9.25,4.06-18.54,4.69-28-.45-7.2,2.67-9.4,4.54-15.66a1.94,1.94,0,0,0,.72-1.28v0c.07-2.45-2.52,0-1.16,1.1a.66.66,0,0,0,.19.18,39.79,39.79,0,0,1-3.7,8,86.16,86.16,0,0,0,.9-12.33c1-1.63,1.44-3.59,2.31-5.26h0a17.23,17.23,0,0,0,1.76-2.49v0s0,0,0,0,0,0,0-.06.06-.12.1-.18c.42-.7.89-1.36,1.26-2.1l0,0,0,0s0,0,0,0l.15-.27s0,0,0,0c.26-.42.51-.87.77-1.29l.06-.09a16.91,16.91,0,0,0,1.64-3l.05,0c.13-.14.27-.23.39-.37s0,0,0,0c.52-.3.78-2.17-.07-1.73,0,0,0,0,0,0h0s0,0-.08.06,0,0,0,0v0a1.16,1.16,0,0,0-.76,1.44h0c0,.09.05.15.07.22s0,0,0,0l.08.16h0c0,.07,0,.15.09.19a32.06,32.06,0,0,1-2.32,3.92l-.35.56a.06.06,0,0,1,0,0l0,0c-.19.33-.34.66-.54,1s-.59.9-.85,1.38a1,1,0,0,1-.1.15h0a1.09,1.09,0,0,1-.14.23v0h0c-.39.62-.77,1.24-1.22,1.83.22-.61.35-1.23.52-1.85.07-.29.15-.54.23-.82.41-1.28.77-2.56,1.1-3.87a.29.29,0,0,0,0-.08c1.51-4.34,5-7.88,6.77-12.14a1.65,1.65,0,0,0,.22-.24h0a1.83,1.83,0,0,0,.68-1.09,1.07,1.07,0,0,0,0-.25,1.39,1.39,0,0,0,0-.4c0-.14-.07-.35-.23-.37h0c-.71.12-1.48.73-1.26,1.53,0,.07,0,.13,0,.18s0,0,0,.08v0a1.07,1.07,0,0,0,.2.36.57.57,0,0,1,.1.19c-1.58,3.43-4.12,6.39-5.86,9.75,1.7-4.64,2.4-9.54,3.44-14.35,1.21-.82,2.26.58,4-1.4l0,0a.09.09,0,0,1,0-.05Zm-1.35,5.18a1.92,1.92,0,0,1,.56-1.07l0,0a2.15,2.15,0,0,1,0,.51,1.38,1.38,0,0,1-.6,1c0-.1,0-.18,0-.3s0,0,0,0Zm-.26,0a.86.86,0,0,1,0,.16v0h0a.5.5,0,0,0,0,.21l0,.18s0,0,0-.08a.44.44,0,0,1-.1-.19.09.09,0,0,1,0-.05v0s0-.13,0-.2a1.07,1.07,0,0,1,.11-.64v0a1.16,1.16,0,0,1,.39-.33s0,0,.06,0A2.06,2.06,0,0,0,46.25,43.82Zm-2,8.61.06,0a.09.09,0,0,1,0,0,3.44,3.44,0,0,0,0,.46.71.71,0,0,1,0,.2,1.39,1.39,0,0,1-.36.56h0c-.07.06-.13.14-.2.21A1.61,1.61,0,0,1,44.24,52.43Zm-.56.28a1.87,1.87,0,0,0-.21,1.14l0,0h0a1.23,1.23,0,0,1-.1-.56.74.74,0,0,1,0-.18A1,1,0,0,1,43.68,52.71ZM38.05,73a.79.79,0,0,1,0-.85A1.88,1.88,0,0,0,38.05,73Zm0,0s0,0,0,0h0Zm.39.2a1.25,1.25,0,0,1,.33-1.6c0,.12.08.25.12.37a1.3,1.3,0,0,1-.26.94s0,0,0,0ZM36.1,106.33c.13-.62.22-1.35.88-1.62,0,.12,0,.24,0,.37a1.48,1.48,0,0,1-.13.63A.92.92,0,0,1,36.1,106.33Zm.32-1.52a1.11,1.11,0,0,0-.35.61v0h0a2.07,2.07,0,0,0-.1.43l0-.12C35.82,105.33,35.93,104.86,36.42,104.81Zm-15.09-11-.15-.06a1.68,1.68,0,0,1-.82-1,2.12,2.12,0,0,1,.36.1A1,1,0,0,1,21.33,93.81Zm.05-3.24a2.65,2.65,0,0,1-.3-.06,2,2,0,0,1-.93-2,.09.09,0,0,0,0,.05c0-.11,0-.23,0-.34a.71.71,0,0,1,.26,0v0h0A2.38,2.38,0,0,0,21.38,90.57Zm.25-.15a2.24,2.24,0,0,1-.93-2.2.75.75,0,0,1,.15.09C21.4,88.78,22.25,89.7,21.63,90.42ZM19,78.86a.41.41,0,0,1-.16,0,.12.12,0,0,0-.08,0,0,0,0,0,0,0,0,1.31,1.31,0,0,1-.68-1.24h0v0a1.62,1.62,0,0,0,.21,0,.32.32,0,0,1,.14,0h0A1.67,1.67,0,0,0,19,78.86Zm.5,0a1.18,1.18,0,0,1-.71-.77,0,0,0,0,1,0,0c-.06-.3-.1-.57-.16-.87l.18.13a1.46,1.46,0,0,1,.72,1.13v0a1.11,1.11,0,0,1,0,.26v0S19.49,78.83,19.51,78.87Zm.74-12.22a2.51,2.51,0,0,0,.3.47h0a.66.66,0,0,1-.39-1A1.37,1.37,0,0,0,20.25,66.65Zm.58.4a2.9,2.9,0,0,1-.38-.52,1.67,1.67,0,0,1-.06-.74h0a.79.79,0,0,1,.44.56A1.24,1.24,0,0,1,20.83,67.05Zm.11,7.06a.17.17,0,0,1,.06.06l-.17,0a2.4,2.4,0,0,0-.84.15c-1.76.53-2.34-.92-3.41-1.91l.22-.07h0s0,0,0,0A2.65,2.65,0,0,1,18,72.1C19.24,72.22,19.52,73.54,20.94,74.11Zm.14-.26a5.84,5.84,0,0,0-.83-.63s0,0-.05,0a.8.8,0,0,0-.13-.13,2.46,2.46,0,0,1-.75-1.59.06.06,0,0,0,0,0v0c0-.48.07-1,0-1.43a2.45,2.45,0,0,1,.12-.81.18.18,0,0,1,.09,0s0,0,0,0l0,0c.22.12.47.17.67.28a0,0,0,0,1,0,0A3.53,3.53,0,0,1,21.08,73.85Zm1.61-1.33v0h0a10,10,0,0,1-.75.86s-.07.11-.11.17a2.05,2.05,0,0,0-.29.47c-.09-.71.51-1.35.44-2.1.12-.68-.38-1.25-.31-1.91a1.85,1.85,0,0,1,.13-.61A1.44,1.44,0,0,1,22,69a.18.18,0,0,1,0,.06,3.42,3.42,0,0,0,.74,1.36s0,0,0,.08a4,4,0,0,1,.31.62h0v0a.92.92,0,0,1,.05.36A2.65,2.65,0,0,1,22.69,72.52Zm.73,6.39c-.38-1-.69-2-1.07-2.94-.22-.84-1.11-1.73-.16-2.37.16-.14.31-.32.46-.47.35,1.56.52,3.14.72,4.73a.65.65,0,0,1,0,.14c0,.21,0,.42.05.65A1.13,1.13,0,0,1,23.42,78.91Zm2.2-8.58a.5.5,0,0,1-.14-.08.41.41,0,0,1-.16-.1s0,0,0,0a1.11,1.11,0,0,1-.46-.85v0h0a3.26,3.26,0,0,1,.21-1,.38.38,0,0,1,.13.06h0A2.07,2.07,0,0,0,25.62,70.33Zm.24-.17v0a1.21,1.21,0,0,1-.44-.7s0,0,0,0h0a2.73,2.73,0,0,1,0-1.24.76.76,0,0,1,.09.09A1.83,1.83,0,0,1,25.86,70.16ZM27.6,67a2.4,2.4,0,0,1-.28-.27,1.17,1.17,0,0,1-.18-1.49l.11-.13C27.05,65.79,27.42,66.42,27.6,67Zm.27,0c-.23-.69-.65-1.43-.26-2.13v0l.07-.13a.53.53,0,0,1,.08-.17s.08,0,.12.07.18.27.25.42,0,0,0,0A2,2,0,0,1,27.87,67Zm2.79,9.39a2.21,2.21,0,0,1,.44-.52.89.89,0,0,1,0,.36.93.93,0,0,1-.34.66h0a1.84,1.84,0,0,1-.25.23A1.29,1.29,0,0,1,30.66,76.43Zm-.53-17.18c-.06,0-.13,0-.21,0a.79.79,0,0,1-.51-1.12A1.42,1.42,0,0,0,30.13,59.25Zm.22-.51a2.14,2.14,0,0,1-.06.27v.05a1.29,1.29,0,0,1-.59-1.47h0a1.59,1.59,0,0,1,.64,1.15ZM26.92,47.18a.11.11,0,0,0-.07,0l-.26-.08a1.28,1.28,0,0,1-.33-.11s0,0,0,0h0c-.31-.15-.31-.59-.37-.9a1.06,1.06,0,0,1,.3,0h0a1.42,1.42,0,0,1,.47.29A.9.9,0,0,1,26.92,47.18ZM25.1,42.41a.88.88,0,0,0-.2-.09l-.17,0s-.07,0-.08,0a2.47,2.47,0,0,1-.66-.3l-.08,0a1.4,1.4,0,0,1-.35-.77.59.59,0,0,0,.17,0h.15a.74.74,0,0,1,.19,0s.05,0,.07,0a3.23,3.23,0,0,1,.41.22s.09.06.12.1C25,41.67,25,42.06,25.1,42.41Zm.43-2.2-.18-.07-.07,0a3.43,3.43,0,0,1-1.07-3.32,1.3,1.3,0,0,0,.25.1,2.57,2.57,0,0,1,.5.24A4.54,4.54,0,0,0,25.53,40.21Zm.64.29a2.43,2.43,0,0,1-.41-.38v0h0v0a1.3,1.3,0,0,1-.16-.31,4.89,4.89,0,0,1-.42-2.29h0v0a6.54,6.54,0,0,0,.11-.79v-.07c0-.08,0-.17,0-.25l.11.06a8.09,8.09,0,0,1,.77.63,0,0,0,0,0,0,0,1.86,1.86,0,0,1,.51.75,1.32,1.32,0,0,1,.14.7v0A13.81,13.81,0,0,1,26.17,40.5Zm3.22.71a.15.15,0,0,1-.06-.05c-.28-.27-.64-.54-.61-1v0a.67.67,0,0,1,0-.24h0v0c.07-.23.13-.49.21-.72a.28.28,0,0,1,.13.11.2.2,0,0,1,.06.07v0c0,.05,0,.1.07.13a.13.13,0,0,0,0,.06v0h0C28.81,40.1,29.18,40.71,29.39,41.21Zm.28,0a3,3,0,0,1-.39-1.1v0h0a.75.75,0,0,1,.1-.32,0,0,0,0,0,0,0,2.19,2.19,0,0,1,.26-.41C30.31,38.34,30.5,41,29.67,41.19ZM26.92,28.51h-.08c-.77-.21-.62-1.13-.51-1.73l.16.07.06,0C26.54,27.44,26.42,28.12,26.92,28.51Zm.35-.08c-.44-.14-.53-.68-.48-1.08,0-.05,0-.11,0-.15s0-.3,0-.43l.06.07L27,27a1.58,1.58,0,0,1,.31,1.32C27.28,28.37,27.26,28.4,27.27,28.43ZM26,17.32h0s0,0,0,0,0,0,0,0-.25-.18-.36-.25a1,1,0,0,1-.2-1h0a.06.06,0,0,0,0,0,1.28,1.28,0,0,1,.21-.46.09.09,0,0,0,0,0C25.79,16.13,26.2,16.75,26,17.32Zm.48-.27a1.13,1.13,0,0,1-.11.22.11.11,0,0,1-.08,0A2.8,2.8,0,0,0,26,15.76a1.42,1.42,0,0,1,.22.2v0h0l0,0a.08.08,0,0,0,0,0,.16.16,0,0,1,.07.07.82.82,0,0,1,.22.41v0A1.22,1.22,0,0,1,26.44,17.05Zm3.09-5.72-.09-.13a2.09,2.09,0,0,1-.11-.3,1.43,1.43,0,0,1,.07-.51,0,0,0,0,0,0,0A2.19,2.19,0,0,0,29.53,11.33Zm.36.21a2.05,2.05,0,0,1-.2-1.29,2.63,2.63,0,0,1,.13-.62,3.22,3.22,0,0,1,.19.6,0,0,0,0,0,0,0s0,0,0,.05A1.65,1.65,0,0,1,29.89,11.54Zm.21.2a2,2,0,0,0,.18-1.46l0-.09s0-.06,0-.08,0,0,.05.07a.87.87,0,0,1,.26.82v.13a1,1,0,0,1,0,.1A3.14,3.14,0,0,1,30.1,11.74ZM25.85,23.65a.73.73,0,0,1,.35.43h0a0,0,0,0,1,0,0v0h0A3.35,3.35,0,0,0,28.11,26c0,.05,0,.1.05.15a2.06,2.06,0,0,0-.35,0,3.52,3.52,0,0,1-1.09-.25A6.17,6.17,0,0,1,24.2,24a2.58,2.58,0,0,0-.32-.34,1.66,1.66,0,0,0,.55-.15A2.16,2.16,0,0,1,25.85,23.65Zm1.83-2a4.54,4.54,0,0,0,2,4v0a1.86,1.86,0,0,1-.62-.05H29a3.21,3.21,0,0,1-2.5-2h0v0s0,0,0,0A5.8,5.8,0,0,0,25.83,22a3.52,3.52,0,0,1-.43-.68l.25,0,.08,0a4.63,4.63,0,0,1,1.53.13,1.11,1.11,0,0,1,.39.2v0Zm3.31,4c1.09-1.17.82-2.86,1-4.29a4.07,4.07,0,0,1,.24-.61A1.32,1.32,0,0,1,33.51,20a4.38,4.38,0,0,0,0,.5h0v0a10.93,10.93,0,0,0-.2,1.9,3.3,3.3,0,0,1-1.87,3,0,0,0,0,0,0,0h0A.8.8,0,0,1,31,25.63Zm-.73-.14-.11-.06a4.92,4.92,0,0,1-.79-.79,3.17,3.17,0,0,0-.34-.39,2.5,2.5,0,0,1-.56-.82l0-.1a.06.06,0,0,0,0,0h0a3.53,3.53,0,0,1-.24-.76.06.06,0,0,1,0,0,3.07,3.07,0,0,1,0-1.09,2.34,2.34,0,0,0,0-.38v0h0v0c0-.24.11-.44.15-.68a5.59,5.59,0,0,1,.76-1.55,10.38,10.38,0,0,1,2.11,2.68v0h0s0,0,0,.05a2.52,2.52,0,0,1,.17,1.39A4,4,0,0,1,30.26,25.49Zm1.09,6.44c-.14-.29-.31-.58-.45-.87-.51-1-1-2-1.47-3v0s0,0,0,0l-.12-.27c-.21-.47-.42-.91-.63-1.37a10.37,10.37,0,0,0,1.39-.29C30.62,28,30.91,30,31.35,31.93Zm3.83-16.34a2,2,0,0,1,0,1.17L35,16.65a2,2,0,0,1-.21-.2s0,0,0,0a1.6,1.6,0,0,1-.31-.61,2.9,2.9,0,0,1,.21-1.51C34.83,14.74,35.06,15.14,35.18,15.59ZM35,14.37a1.68,1.68,0,0,1,.27.37c.31.48.83,1.15.42,1.72C35.8,15.68,35.23,15.06,35,14.37Zm1.91,6.85s0,0,0,0a1.72,1.72,0,0,0,1-1.67.06.06,0,0,0,0,0C38.09,20.27,37.81,21.27,36.89,21.22Zm.31-1.73a1.27,1.27,0,0,1,.42-.31A1.71,1.71,0,0,1,37,20.86,1.78,1.78,0,0,1,37.2,19.49Zm-.52,1.27a.11.11,0,0,0,0-.05s0,0,0,0a.17.17,0,0,1,0-.1,1.35,1.35,0,0,1,0,.18h0S36.7,20.78,36.68,20.76ZM35.35,29l-.06.07a1.65,1.65,0,0,0-.43,1.28.25.25,0,0,1-.06-.14c0-.05,0-.08,0-.13A.84.84,0,0,1,35.35,29Zm-.13,1.61a.78.78,0,0,1-.12-.46v-.05a.56.56,0,0,1,0-.13.5.5,0,0,1,0-.13h0v0A5,5,0,0,1,35.6,29a.65.65,0,0,1,0,.31C35.68,29.78,35.65,30.34,35.22,30.58Zm2.06,1.49c0,.18,0,.36,0,.54a1.12,1.12,0,0,1-.44.81A1.91,1.91,0,0,1,37.28,32.07Zm-.39.14a2.08,2.08,0,0,0-.3,1.07l0,0A1.07,1.07,0,0,1,36.89,32.21Zm1.93,14.92a1.85,1.85,0,0,0-.13.29s0,0,0,0a1.44,1.44,0,0,0-.06,1,.67.67,0,0,1-.14-.19h0a1,1,0,0,1-.1-.58,1.85,1.85,0,0,1,.33-.82s0,0,0,0A1.75,1.75,0,0,1,38.82,47.13Zm.06,1.41A1.07,1.07,0,0,1,38.8,48a1.3,1.3,0,0,1,.08-.34.1.1,0,0,0,0-.07,1.84,1.84,0,0,1,.34-.57l.09-.12A1.87,1.87,0,0,1,38.88,48.54Zm2.33-7.27c0,.19-.16.32-.23.49,0-.07-.1-.12-.14-.19a1.43,1.43,0,0,1-.14-.34v0a1.25,1.25,0,0,1,.07-.63v0a1,1,0,0,1,0-.12s0,0,0,0v0s0,0,0,0,0,0,0,0v0a1.27,1.27,0,0,0,.07.12,1.49,1.49,0,0,1,.26.7Zm2.32-2.08a1.88,1.88,0,0,0-.44-.4c-.37-.33-.79-.6-1.14-.95a1.32,1.32,0,0,1-.41-.88h0a2.71,2.71,0,0,1,.4-1.64,2.2,2.2,0,0,0,.33.41,1,1,0,0,1,.11.15,2,2,0,0,1,.32.63A11,11,0,0,0,43.53,39.19Zm1.3-1.48a0,0,0,0,1,0,0,15,15,0,0,0-1,1.26s-.06,0-.1,0-.09-.29-.14-.44c-.24-.64-.68-1.26-.27-1.93A19.55,19.55,0,0,1,44.48,35C44.67,35.84,45.27,36.81,44.83,37.71Zm1.66-.56a1.1,1.1,0,0,0-.08.57h0a1.21,1.21,0,0,1,0,.18s0,0,0,0a1,1,0,0,1-.46.66c-.49.41-1.13.35-1.69.56a6.71,6.71,0,0,1,.64-.87,1.51,1.51,0,0,0,.4-.83s0,0,.09-.07h0c.34-.37.65-1,1.23-.84A3.1,3.1,0,0,1,46.49,37.15Zm1.18,1.36,0,0a0,0,0,0,0,0,0,1.06,1.06,0,0,1-.12.1h0s0,0,0,0,0,0,0,0h0a5.17,5.17,0,0,1-1.1.82h0c-.74.31-1.56,0-2.29.16a2.09,2.09,0,0,1,.1-.21l.06-.09c.56-.27,1.26-.16,1.76-.61a.92.92,0,0,0,.39-.3c.09,0,.18,0,.28,0A3.62,3.62,0,0,1,47.67,38.51Z"/><path class="cls-1" d="M27.73,21.24h0Z"/><path class="cls-1" d="M28.17,21h0v0Z"/><polygon class="cls-1" points="31.2 21.43 31.2 21.43 31.2 21.43 31.2 21.43"/><path class="cls-1" d="M26.21,24.11v0s0,0,0,.05Z"/><path class="cls-1" d="M26.52,23.63h0v0Z"/><polygon class="cls-1" points="33.46 20.47 33.46 20.47 33.46 20.46 33.46 20.47"/><path class="cls-1" d="M31.36,25.45h0Z"/><path class="cls-1" d="M26.34,19.65Z"/><path class="cls-1" d="M31.1,20.07s0,0,0,0Z"/><path class="cls-1" d="M30.13,9.53h0Z"/><path class="cls-1" d="M30.53,11.12h0Z"/><path class="cls-1" d="M26,15.32h0Z"/><polygon class="cls-1" points="26.53 16.52 26.53 16.52 26.53 16.52 26.53 16.52"/><path class="cls-1" d="M26.2,16Z"/><path class="cls-1" d="M44,35l0,0Z"/><path class="cls-1" d="M44.35,39.05h0Z"/><path class="cls-1" d="M45.37,37.29a.05.05,0,0,1,0,0Z"/><path class="cls-1" d="M46.74,37.25v0Z"/><path class="cls-1" d="M44.55,39h0Z"/><path class="cls-1" d="M41.32,36.64h0Z"/><path class="cls-1" d="M47.65,38.87l0,0Z"/><polygon class="cls-1" points="29.38 39.73 29.37 39.74 29.38 39.73 29.38 39.73"/><path class="cls-1" d="M29.18,39.58h0v0Z"/><polygon class="cls-1" points="29.27 40.08 29.27 40.08 29.27 40.08 29.27 40.08"/><polygon class="cls-1" points="28.73 40.17 28.73 40.17 28.73 40.16 28.73 40.17"/><path class="cls-1" d="M29.3,41.48h0Z"/><path class="cls-1" d="M28.77,39.9v0Z"/><path class="cls-1" d="M24.18,42.32l0,0Z"/><path class="cls-1" d="M26.25,47h0Z"/><path class="cls-1" d="M41.36,44.31v0Z"/><path class="cls-1" d="M41.69,45.72v0Z"/><path class="cls-1" d="M41.18,40.45v0Z"/><path class="cls-1" d="M41.28,41.73Z"/><path class="cls-1" d="M41.09,40.29h0Z"/><polygon class="cls-1" points="40.7 41.22 40.7 41.23 40.7 41.22 40.7 41.22"/><path class="cls-1" d="M40.82,40.41h0v0Z"/><path class="cls-1" d="M40.76,40.56v0Z"/><path class="cls-1" d="M41.21,41.26h0v0Z"/><path class="cls-1" d="M38.24,48.42v0Z"/><path class="cls-1" d="M38.48,46.79s0,0,0,0Z"/><path class="cls-1" d="M38.7,46.9h0v0Z"/><path class="cls-1" d="M46.73,44.5l0,0Z"/><path class="cls-1" d="M46.25,44h0v0Z"/><path class="cls-1" d="M46.5,44h0v0Z"/><polygon class="cls-1" points="46.6 42.91 46.6 42.92 46.6 42.91 46.6 42.91"/><path class="cls-1" d="M27.16,89.52v0Z"/><path class="cls-1" d="M28.37,65h0Z"/><path class="cls-1" d="M28.36,65v0Z"/><path class="cls-1" d="M28.14,65.09h0v0Z"/><polygon class="cls-1" points="27.62 64.38 27.63 64.37 27.62 64.38 27.62 64.38"/><path class="cls-1" d="M27.33,64.7h0Z"/><path class="cls-1" d="M19.32,71.46h0v0Z"/><path class="cls-1" d="M19.63,69.26h0Z"/><path class="cls-1" d="M22,71.69Z"/><path class="cls-1" d="M20.3,69.55h0v0Z"/><path class="cls-1" d="M16.82,72.28h0Z"/><path class="cls-1" d="M23,72.64h0Z"/><path class="cls-1" d="M22.69,72.53h0l0,0Z"/><path class="cls-1" d="M23.09,71.17h0Z"/><path class="cls-1" d="M23,72.61v0Z"/><path class="cls-1" d="M22.92,70.1h0Z"/><path class="cls-1" d="M27,74.21v0Z"/><path class="cls-1" d="M25.41,69.49h0Z"/><path class="cls-1" d="M26.06,70.39h0Z"/><path class="cls-1" d="M26.08,70.32v0Z"/><path class="cls-1" d="M26.07,70.34h0Z"/><path class="cls-1" d="M26.05,70.4v0Z"/><path class="cls-1" d="M25.85,70.2v0Z"/><polygon class="cls-1" points="25.17 68.28 25.17 68.27 25.18 68.28 25.17 68.28"/><path class="cls-1" d="M24.83,69.27h0v0Z"/><path class="cls-1" d="M28.12,83.41v0Z"/><path class="cls-1" d="M30.77,76.94h0Z"/><path class="cls-1" d="M19.76,78.52a0,0,0,0,0,0,0Z"/><path class="cls-1" d="M19.75,78.93h0v0h0v0Z"/><polygon class="cls-1" points="19.52 78.47 19.52 78.46 19.52 78.47 19.52 78.47"/><polygon class="cls-1" points="18.06 77.55 18.06 77.56 18.06 77.55 18.06 77.55"/><polygon class="cls-1" points="18.75 78.79 18.76 78.79 18.75 78.79 18.75 78.79"/><polygon class="cls-1" points="18.26 77.52 18.26 77.52 18.27 77.52 18.26 77.52"/><path class="cls-1" d="M27.88,101.23a.08.08,0,0,0,0,0Z"/><path class="cls-1" d="M20.43,88.28v0Z"/><path class="cls-1" d="M20,88.07v0Z"/><path class="cls-1" d="M20,89.45v0Z"/><path class="cls-1" d="M20.3,87.93h0Z"/><path class="cls-1" d="M25.92,98.43h0Z"/><path class="cls-1" d="M25.1,97.05l0,0Z"/><path class="cls-1" d="M24,96l0,0Z"/><path class="cls-1" d="M30.34,58.73h0v0Z"/><polygon class="cls-1" points="36.06 105.45 36.06 105.44 36.05 105.45 36.06 105.45"/><path class="cls-1" d="M36.45,106.49Z"/><path class="cls-1" d="M35.75,106.18h0Z"/><path class="cls-1" d="M39.25,72.39v0Z"/><path class="cls-1" d="M38.06,73.05h0Z"/><path class="cls-1" d="M21.45,69.39h0Z"/><path class="cls-1" d="M21.2,68.62v0Z"/><path class="cls-1" d="M23.37,78.06v0Z"/><path class="cls-1" d="M23.93,80Z"/><path class="cls-1" d="M20.71,65.69h0Z"/><path class="cls-1" d="M20.24,66.65h0Z"/><path class="cls-1" d="M21.11,66.31v0Z"/><path class="cls-1" d="M21.05,67.2v0Z"/><polygon class="cls-1" points="20.52 67.11 20.53 67.11 20.52 67.11 20.52 67.11"/><path class="cls-1" d="M20.56,67.12Z"/><path class="cls-1" d="M20.51,67.37h0Z"/><path class="cls-1" d="M37.79,64h0Z"/><path class="cls-1" d="M42.06,57.34h0Z"/><path class="cls-1" d="M43,55.8h0Z"/><path class="cls-1" d="M39.09,61.67h0Z"/><path class="cls-1" d="M39.57,61.52v0Z"/><path class="cls-1" d="M39.23,61.42h0Z"/><path class="cls-1" d="M41.21,58.76l0,0Z"/><path class="cls-1" d="M44.13,54l0,0Z"/><path class="cls-1" d="M43.92,53.67h0Z"/><polygon class="cls-1" points="43.93 53.66 43.93 53.66 43.92 53.66 43.93 53.66"/><polygon class="cls-1" points="44.31 52.48 44.31 52.47 44.31 52.48 44.31 52.48"/><path class="cls-1" d="M43.25,54l0,0Z"/><path class="cls-1" d="M43.34,54.14Z"/><path class="cls-1" d="M43.16,53.73h0v0Z"/><path class="cls-1" d="M44.05,52.21l0,0Z"/><path class="cls-1" d="M26.28,36.77h0Z"/><polygon class="cls-1" points="26.87 38.51 26.87 38.51 26.87 38.51 26.87 38.51"/><polygon class="cls-1" points="25.15 37.45 25.15 37.45 25.15 37.44 25.15 37.45"/><path class="cls-1" d="M26.36,36.83h0Z"/><polygon class="cls-1" points="25.73 40.08 25.74 40.08 25.73 40.08 25.73 40.08"/><polygon class="cls-1" points="25.76 40.11 25.76 40.12 25.76 40.11 25.76 40.11"/><path class="cls-1" d="M25.73,40.62h0Z"/></svg>